<svg width="49" height="48" viewBox="0 0 49 48" fill="none" xmlns="http://www.w3.org/2000/svg">
<path d="M27.0714 21.4286L35.498 13.0003L35.4981 13.0003L35.4984 13.0001L35.4988 13L35.4993 13.0001L35.4997 13.0003L35.4999 13.0007L35.5 13.0012L35.4999 13.0016L35.4997 13.0019L35.4997 13.002L27.0714 21.4286ZM21.9283 21.4283L13.5003 13.002L13.5001 13.0016L13.5 13.0012L13.5001 13.0007L13.5003 13.0003L13.5007 13.0001L13.5012 13L13.5016 13.0001L13.502 13.0003L21.9283 21.4283ZM27.0711 26.5711L35.4997 34.998L35.4997 34.9981L35.4999 34.9984L35.5 34.9988L35.4999 34.9993L35.4997 34.9997L35.4993 34.9999L35.4988 35L35.4984 34.9999L35.4981 34.9997L35.498 34.9997L27.0711 26.5711ZM21.9286 26.5714L13.502 34.9997L13.5019 34.9997L13.5016 34.9999L13.5012 35L13.5007 34.9999L13.5003 34.9997L13.5001 34.9993L13.5 34.9988L13.5001 34.9984L13.5003 34.9981L13.5003 34.998L21.9286 26.5714Z" fill="#F70F0F" stroke="#F70F0F" stroke-width="2"/>
</svg>
