<svg width="49" height="48" viewBox="0 0 49 48" fill="none" xmlns="http://www.w3.org/2000/svg">
<path d="M15.5002 10V10.5578C15.5002 16.645 17.7784 21.8809 21.2524 23.818V24.1819C17.7784 26.119 15.5001 31.3549 15.5001 37.4421V38H32.6206V37.4421C32.6206 31.3192 30.3038 26.0817 26.7975 24.1763V23.8236C30.3035 21.918 32.6206 16.6805 32.6206 10.5578V10H15.5002ZM16.6308 11.1156H31.49C31.3422 16.8739 28.9381 21.5953 26.0008 22.9914L25.6818 23.1426V24.8592L26.0009 25.0102C28.938 26.4063 31.3419 31.1263 31.49 36.8842H16.6308C16.7775 31.1586 19.1459 26.4311 22.0566 25.0065L22.37 24.8536V23.1463L22.0566 22.9934C19.146 21.5688 16.7774 16.8412 16.6308 11.1156ZM29.3873 16.2577C25.9478 17.9182 21.9524 17.9199 18.7858 16.5022C19.6608 19.5415 21.4019 21.7048 23.4504 22.0623C23.3548 22.1885 23.303 22.3425 23.3029 22.5008C23.3029 22.9044 23.6306 23.2322 24.0343 23.2322C24.438 23.2322 24.7657 22.9044 24.7657 22.5008C24.7657 22.3384 24.7116 22.1892 24.6221 22.0679C26.7372 21.7169 28.5321 19.4366 29.3873 16.2577ZM24.0343 24.1297C23.6306 24.1297 23.3029 24.4573 23.3029 24.8611C23.3029 25.2648 23.6306 25.5925 24.0343 25.5925C24.438 25.5925 24.7657 25.2648 24.7657 24.8611C24.7657 24.4573 24.438 24.1297 24.0343 24.1297ZM24.0343 26.4749C23.6306 26.4749 23.3029 26.8027 23.3029 27.2063C23.3029 27.6101 23.6306 27.9377 24.0343 27.9377C24.438 27.9377 24.7657 27.6101 24.7657 27.2063C24.7657 26.8027 24.438 26.4749 24.0343 26.4749ZM24.0343 28.8353C23.6306 28.8353 23.3029 29.1629 23.3029 29.5667C23.3029 29.9703 23.6306 30.298 24.0343 30.298C24.438 30.298 24.7657 29.9703 24.7657 29.5667C24.7657 29.1629 24.438 28.8353 24.0343 28.8353ZM24.0418 31.2179C22.656 31.2346 21.284 32.7565 19.5153 35.735H28.6503C26.8279 32.6898 25.4275 31.2011 24.0418 31.2179Z" fill="black"/>
</svg>
