<svg width="49" height="48" viewBox="0 0 49 48" fill="none" xmlns="http://www.w3.org/2000/svg">
<path d="M24.75 14C22.5628 14.0026 20.4658 14.8726 18.9192 16.4192C17.3726 17.9658 16.5026 20.0628 16.5 22.25C16.4974 24.0374 17.0812 25.7763 18.162 27.2C18.162 27.2 18.387 27.4963 18.4238 27.539L24.75 35L31.0793 27.5353C31.1123 27.4955 31.338 27.2 31.338 27.2L31.3388 27.1978C32.419 25.7747 33.0026 24.0366 33 22.25C32.9974 20.0628 32.1274 17.9658 30.5808 16.4192C29.0342 14.8726 26.9373 14.0026 24.75 14ZM24.75 18.5C25.195 18.5 25.63 18.632 26 18.8792C26.3701 19.1264 26.6584 19.4778 26.8287 19.889C26.999 20.3001 27.0436 20.7525 26.9568 21.189C26.87 21.6254 26.6557 22.0263 26.341 22.341C26.0263 22.6557 25.6254 22.87 25.189 22.9568C24.7525 23.0436 24.3001 22.999 23.889 22.8287C23.4778 22.6584 23.1264 22.37 22.8792 22C22.632 21.63 22.5 21.195 22.5 20.75C22.5006 20.1534 22.7378 19.5815 23.1597 19.1597C23.5815 18.7378 24.1535 18.5006 24.75 18.5ZM27.75 26.75H26.25V25.25H23.25V26.75H21.75V25.25C21.7504 24.8523 21.9086 24.471 22.1898 24.1898C22.471 23.9086 22.8523 23.7504 23.25 23.75H26.25C26.6477 23.7504 27.029 23.9086 27.3102 24.1898C27.5914 24.471 27.7496 24.8523 27.75 25.25V26.75Z" fill="black"/>
</svg>
