<svg width="49" height="48" viewBox="0 0 49 48" fill="none" xmlns="http://www.w3.org/2000/svg">
<path d="M13.5997 20.6517C13.6543 19.9708 13.9635 19.3354 14.4655 18.8722C14.9676 18.4089 15.6257 18.1517 16.3088 18.1519H32.6912C33.3743 18.1517 34.0324 18.4089 34.5345 18.8722C35.0365 19.3354 35.3457 19.9708 35.4003 20.6517L36.4913 34.2381C36.5213 34.612 36.4736 34.988 36.3511 35.3425C36.2287 35.6971 36.0341 36.0224 35.7798 36.2981C35.5254 36.5738 35.2167 36.7938 34.8732 36.9443C34.5296 37.0948 34.1586 37.1726 33.7835 37.1727H15.2165C14.8414 37.1726 14.4704 37.0948 14.1268 36.9443C13.7833 36.7938 13.4746 36.5738 13.2202 36.2981C12.9659 36.0224 12.7713 35.6971 12.6489 35.3425C12.5264 34.988 12.4787 34.612 12.5087 34.2381L13.5997 20.6517Z" stroke="#652F8B" stroke-width="1.35863" stroke-linecap="round" stroke-linejoin="round"/>
<path d="M29.934 22.2277V15.4345C29.934 13.9932 29.3614 12.6109 28.3423 11.5917C27.3231 10.5726 25.9408 10 24.4995 10C23.0581 10 21.6759 10.5726 20.6567 11.5917C19.6375 12.6109 19.0649 13.9932 19.0649 15.4345V22.2277" stroke="#652F8B" stroke-width="1.35863" stroke-linecap="round" stroke-linejoin="round"/>
</svg>
