<svg width="49" height="48" viewBox="0 0 49 48" fill="none" xmlns="http://www.w3.org/2000/svg">
<g clip-path="url(#clip0_868_2421)">
<path d="M30.0417 33.3333C30.9621 33.3333 31.7083 32.5871 31.7083 31.6667C31.7083 30.7462 30.9621 30 30.0417 30C29.1212 30 28.375 30.7462 28.375 31.6667C28.375 32.5871 29.1212 33.3333 30.0417 33.3333Z" fill="#652F8B"/>
<path d="M21.5749 33.5892C22.4953 33.5892 23.2415 32.843 23.2415 31.9225C23.2415 31.0021 22.4953 30.2559 21.5749 30.2559C20.6544 30.2559 19.9082 31.0021 19.9082 31.9225C19.9082 32.843 20.6544 33.5892 21.5749 33.5892Z" fill="#652F8B"/>
<path d="M34.6412 16.5162L34.1597 16.9282L34.119 16.9182L34.6412 16.5162ZM18.7145 17.0062H34.0344L31.942 25.5062H21.7012H21.4305L21.2222 25.6791L21.1079 25.7739L21.0096 25.4632L18.3328 17.0062H18.7145ZM34.0535 16.9686L34.09 16.9405L34.1029 16.9431L34.1129 16.9452L34.1129 16.9553L34.1128 16.9683L34.0777 16.9984C34.0771 16.9981 34.0766 16.9979 34.076 16.9976C34.0705 16.9948 34.0653 16.9915 34.0605 16.9876C34.0577 16.9822 34.0555 16.9765 34.054 16.9705C34.0538 16.9699 34.0537 16.9692 34.0535 16.9686ZM34.1347 16.9496L34.1145 16.9668V16.9548V16.9455L34.1347 16.9496Z" stroke="#652F8B" stroke-width="1.5"/>
</g>
<defs>
<clipPath id="clip0_868_2421">
<rect width="48" height="48" fill="white" transform="translate(0.375)"/>
</clipPath>
</defs>
</svg>
