<svg width="25" height="24" viewBox="0 0 25 24" fill="none" xmlns="http://www.w3.org/2000/svg">
<path d="M24.4279 22.2749L16.6369 14.4839C17.8459 12.9209 18.4999 11.01 18.4999 8.99996C18.4999 6.59397 17.5609 4.33798 15.8629 2.63699C14.1649 0.935996 11.9029 0 9.49996 0C7.09697 0 4.83498 0.938996 3.13699 2.63699C1.436 4.33498 0.5 6.59397 0.5 8.99996C0.5 11.4029 1.439 13.6649 3.13699 15.3629C4.83498 17.0639 7.09397 17.9999 9.49996 17.9999C11.51 17.9999 13.4179 17.3459 14.9809 16.1399L22.7719 23.9279C22.7947 23.9508 22.8219 23.9689 22.8517 23.9813C22.8816 23.9936 22.9136 24 22.9459 24C22.9782 24 23.0102 23.9936 23.0401 23.9813C23.0699 23.9689 23.0971 23.9508 23.1199 23.9279L24.4279 22.6229C24.4508 22.6001 24.4689 22.5729 24.4813 22.5431C24.4936 22.5132 24.5 22.4812 24.5 22.4489C24.5 22.4166 24.4936 22.3846 24.4813 22.3547C24.4689 22.3249 24.4508 22.2977 24.4279 22.2749ZM14.2519 13.7519C12.9799 15.0209 11.294 15.7199 9.49996 15.7199C7.70597 15.7199 6.01998 15.0209 4.74798 13.7519C3.47899 12.4799 2.77999 10.794 2.77999 8.99996C2.77999 7.20597 3.47899 5.51698 4.74798 4.24798C6.01998 2.97899 7.70597 2.27999 9.49996 2.27999C11.294 2.27999 12.9829 2.97599 14.2519 4.24798C15.5209 5.51998 16.2199 7.20597 16.2199 8.99996C16.2199 10.794 15.5209 12.4829 14.2519 13.7519Z" fill="#737871"/>
</svg>
