<svg width="13" height="14" viewBox="0 0 13 14" fill="none" xmlns="http://www.w3.org/2000/svg">
<path fill-rule="evenodd" clip-rule="evenodd" d="M4.83301 13H7.99967V13.6667H4.83301V13Z" fill="#F9FBFD"/>
<path fill-rule="evenodd" clip-rule="evenodd" d="M6.83333 11.667C6.92174 11.667 7.00652 11.7021 7.06904 11.7646C7.13155 11.8271 7.16667 11.9119 7.16667 12.0003V13.3337C7.16667 13.4221 7.13155 13.5068 7.06904 13.5694C7.00652 13.6319 6.92174 13.667 6.83333 13.667C6.74493 13.667 6.66014 13.6319 6.59763 13.5694C6.53512 13.5068 6.5 13.4221 6.5 13.3337V12.0003C6.5 11.9119 6.53512 11.8271 6.59763 11.7646C6.66014 11.7021 6.74493 11.667 6.83333 11.667Z" fill="#F9FBFD"/>
<path fill-rule="evenodd" clip-rule="evenodd" d="M6.56666 12.3341C7.91865 12.3341 9.14999 11.8261 10.0777 10.9924C9.52151 11.219 8.92653 11.3351 8.32599 11.3341C5.85699 11.3341 3.83332 9.4061 3.83332 7.00076C3.83332 6.91236 3.86844 6.82757 3.93095 6.76506C3.99346 6.70255 4.07825 6.66743 4.16665 6.66743C4.25506 6.66743 4.33984 6.70255 4.40236 6.76506C4.46487 6.82757 4.49999 6.91236 4.49999 7.00076C4.49999 9.01376 6.20065 10.6674 8.32599 10.6674C9.50099 10.6674 10.5493 10.1604 11.25 9.36576C11.2712 9.34145 11.2959 9.32044 11.3233 9.30343C11.49 8.9401 11.6157 8.5541 11.6943 8.15176C11.8173 7.5211 11.999 6.89043 12.387 6.37843C12.548 6.1661 12.367 5.86643 12.1043 5.90976L7.73265 6.63076C7.39186 6.68698 7.04202 6.63594 6.73151 6.48468C6.42099 6.33342 6.16513 6.08943 5.99932 5.78643L4.47799 3.00643C4.32644 2.73007 4.07918 2.51855 3.78268 2.41164C3.48617 2.30473 3.16083 2.30977 2.86778 2.42582C2.57473 2.54186 2.33415 2.76093 2.19123 3.04186C2.04831 3.32279 2.0129 3.64624 2.09165 3.95143L2.20765 4.3991C2.32678 4.85898 2.32482 5.34186 2.20199 5.80076L1.94832 6.7481C1.65432 7.84576 1.56999 9.0521 2.19832 9.9991C2.67693 10.7189 3.32644 11.3089 4.08879 11.7164C4.85114 12.1239 5.70258 12.3361 6.56699 12.3341H6.56666ZM3.16665 3.66743C3.25506 3.66743 3.33984 3.63231 3.40236 3.5698C3.46487 3.50729 3.49999 3.4225 3.49999 3.3341C3.49999 3.24569 3.46487 3.16091 3.40236 3.09839C3.33984 3.03588 3.25506 3.00076 3.16665 3.00076C3.07825 3.00076 2.99346 3.03588 2.93095 3.09839C2.86844 3.16091 2.83332 3.24569 2.83332 3.3341C2.83332 3.4225 2.86844 3.50729 2.93095 3.5698C2.99346 3.63231 3.07825 3.66743 3.16665 3.66743Z" fill="#F9FBFD"/>
<path fill-rule="evenodd" clip-rule="evenodd" d="M3.52837 1.00035C3.94837 0.580351 4.66637 0.877684 4.66637 1.47168V2.00035H5.12303C5.73603 2.00035 6.02403 2.75802 5.5657 3.16535L4.72103 3.91602C4.65467 3.97279 4.56869 4.00125 4.48156 3.99528C4.39444 3.98931 4.31313 3.94938 4.25514 3.88409C4.19714 3.8188 4.16708 3.73336 4.17143 3.64614C4.17577 3.55892 4.21417 3.47689 4.27837 3.41768L5.12303 2.66702H4.66637C4.48956 2.66702 4.31999 2.59678 4.19496 2.47176C4.06994 2.34673 3.9997 2.17716 3.9997 2.00035V1.47168L1.1377 4.33368H2.33303C2.42144 4.33368 2.50622 4.3688 2.56874 4.43132C2.63125 4.49383 2.66637 4.57861 2.66637 4.66702C2.66637 4.75542 2.63125 4.84021 2.56874 4.90272C2.50622 4.96523 2.42144 5.00035 2.33303 5.00035H1.1377C0.5437 5.00035 0.246367 4.28235 0.666367 3.86235L3.52837 1.00035Z" fill="#F9FBFD"/>
</svg>
