<svg width="17" height="16" viewBox="0 0 17 16" fill="none" xmlns="http://www.w3.org/2000/svg">
<path d="M16.0448 6.55873C15.6275 5.62835 14.9628 4.90764 14.1208 4.46893C13.9266 4.79371 13.6949 5.10046 13.4292 5.38443C13.4307 5.38518 13.4323 5.38583 13.4338 5.38658C14.6876 6.01351 15.4169 7.61564 15.2072 9.28271C14.8598 12.0446 13.8955 13.9375 12.492 14.6126C11.5796 15.0515 10.4416 14.989 9.10967 14.427L8.97957 14.3723H8.02036L7.89029 14.427C6.55832 14.989 5.4204 15.0515 4.50795 14.6126C3.10447 13.9375 2.14031 12.0446 1.79279 9.28271C1.58308 7.61564 2.31237 6.01348 3.5662 5.38658C3.97008 5.1859 4.42809 5.08236 4.89318 5.08658C5.84272 5.08658 6.93698 5.47359 8.12608 6.23813L8.16847 6.26551C8.16847 6.26551 9.88258 6.0842 10.5616 5.81599C12.6076 5.00792 13.0591 3.72351 13.1391 3.54909C13.3752 3.03951 13.4931 2.49438 13.4862 1.94502C13.4793 1.39567 13.3477 0.852913 13.099 0.347935L12.9388 0L12.5082 0.0037637C11.8272 0.0102561 11.1555 0.141984 10.5372 0.390299C9.91891 0.638614 9.36797 0.997899 8.92057 1.44456C8.47317 1.89123 8.13944 2.41517 7.94127 2.98199C7.74311 3.54881 7.68501 4.14568 7.77077 4.73341C7.02744 4.37107 6.30464 4.14002 5.61221 4.04432C4.63121 3.90865 3.73182 4.0409 2.93905 4.43731C2.06837 4.87267 1.38235 5.60625 0.955187 6.55866C0.566846 7.42455 0.419989 8.43424 0.541675 9.40175C0.940556 12.5729 2.10145 14.706 3.89889 15.5708C4.48949 15.8558 5.15458 16.0036 5.82997 15.9999C6.60024 15.9999 7.4279 15.8222 8.30676 15.467H8.69337C10.3607 16.1408 11.8431 16.1759 13.1011 15.5708C14.8984 14.7061 16.0595 12.5729 16.4584 9.40175C16.58 8.43431 16.4331 7.42462 16.0448 6.55873ZM11.1523 1.35041C11.4498 1.23903 11.7633 1.16347 12.0842 1.12582C12.2267 1.55471 12.2614 2.0053 12.1857 2.44688C12.1101 2.88847 11.9259 3.31068 11.6457 3.68476C11.3656 4.05884 10.9961 4.376 10.5623 4.61463C10.1286 4.85326 9.64081 5.00775 9.13225 5.06759C8.89083 4.34027 8.96284 3.56129 9.33478 2.87688C9.70672 2.19247 10.353 1.64968 11.1523 1.35041Z" fill="#F9FBFD"/>
</svg>
