<svg width="22" height="20" viewBox="0 0 22 20" fill="none" xmlns="http://www.w3.org/2000/svg">
<path d="M15.8355 2.125C16.3815 2.12454 16.9222 2.2331 17.4257 2.44431C17.9293 2.65552 18.3856 2.96513 18.768 3.355C19.5558 4.15479 19.9974 5.23237 19.9974 6.355C19.9974 7.47763 19.5558 8.55522 18.768 9.355L10.998 17.2225L3.22797 9.355C2.44016 8.55522 1.99856 7.47763 1.99856 6.355C1.99856 5.23237 2.44016 4.15479 3.22797 3.355C3.61054 2.96541 4.0669 2.65596 4.5704 2.44472C5.0739 2.23348 5.61445 2.12468 6.16047 2.12468C6.70649 2.12468 7.24703 2.23348 7.75054 2.44472C8.25404 2.65596 8.7104 2.96541 9.09297 3.355L10.998 5.305L12.8955 3.37C13.2767 2.97549 13.7335 2.6619 14.2386 2.44798C14.7438 2.23406 15.2869 2.12421 15.8355 2.125ZM15.8355 0.625001C15.0897 0.624369 14.3513 0.772642 13.6636 1.06113C12.9758 1.34961 12.3526 1.7725 11.8305 2.305L10.998 3.145L10.1655 2.305C9.64268 1.77346 9.01932 1.35131 8.33171 1.06314C7.64411 0.77498 6.90602 0.626572 6.16047 0.626572C5.41492 0.626572 4.67683 0.77498 3.98923 1.06314C3.30162 1.35131 2.67826 1.77346 2.15547 2.305C1.09188 3.38772 0.495941 4.84477 0.495941 6.3625C0.495941 7.88023 1.09188 9.33728 2.15547 10.42L10.998 19.375L19.8405 10.42C20.9041 9.33728 21.5 7.88023 21.5 6.3625C21.5 4.84477 20.9041 3.38772 19.8405 2.305C19.3178 1.77318 18.6945 1.35073 18.0069 1.0623C17.3193 0.773861 16.5811 0.625206 15.8355 0.625001Z" fill="#1D1D1E"/>
</svg>
