<svg width="17" height="16" viewBox="0 0 17 16" fill="none" xmlns="http://www.w3.org/2000/svg">
<mask id="mask0_444_1193" style="mask-type:alpha" maskUnits="userSpaceOnUse" x="0" y="0" width="17" height="16">
<rect x="0.5" width="16" height="16" fill="#D9D9D9"/>
</mask>
<g mask="url(#mask0_444_1193)">
<path d="M4.83333 7.33334L8.5 1.33334L12.1667 7.33334H4.83333ZM12.1667 14.6667C11.3333 14.6667 10.6249 14.3751 10.0413 13.792C9.45822 13.2085 9.16667 12.5 9.16667 11.6667C9.16667 10.8333 9.45822 10.1249 10.0413 9.54134C10.6249 8.95823 11.3333 8.66668 12.1667 8.66668C13 8.66668 13.7084 8.95823 14.292 9.54134C14.8751 10.1249 15.1667 10.8333 15.1667 11.6667C15.1667 12.5 14.8751 13.2085 14.292 13.792C13.7084 14.3751 13 14.6667 12.1667 14.6667ZM2.5 14.3333V9.00001H7.83333V14.3333H2.5ZM12.1667 13.3333C12.6333 13.3333 13.0278 13.1722 13.35 12.85C13.6722 12.5278 13.8333 12.1333 13.8333 11.6667C13.8333 11.2 13.6722 10.8056 13.35 10.4833C13.0278 10.1611 12.6333 10 12.1667 10C11.7 10 11.3056 10.1611 10.9833 10.4833C10.6611 10.8056 10.5 11.2 10.5 11.6667C10.5 12.1333 10.6611 12.5278 10.9833 12.85C11.3056 13.1722 11.7 13.3333 12.1667 13.3333ZM3.83333 13H6.5V10.3333H3.83333V13ZM7.2 6.00001H9.8L8.5 3.90001L7.2 6.00001Z" fill="#F9FBFD"/>
</g>
</svg>
