<svg width="49" height="49" viewBox="0 0 49 49" fill="none" xmlns="http://www.w3.org/2000/svg">
<g clip-path="url(#clip0_444_921)">
<path d="M25.04 20.8926C24.136 20.8992 23.2543 21.1736 22.5062 21.681C21.7581 22.1884 21.1772 22.9061 20.8367 23.7435C20.4963 24.5809 20.4117 25.5004 20.5935 26.3858C20.7753 27.2713 21.2155 28.083 21.8584 28.7185C22.5013 29.3539 23.3181 29.7846 24.2056 29.9561C25.0931 30.1276 26.0116 30.0323 26.8449 29.6821C27.6783 29.3319 28.3892 28.7427 28.8879 27.9887C29.3865 27.2347 29.6506 26.3499 29.6466 25.446C29.644 24.8443 29.5227 24.249 29.2896 23.6943C29.0565 23.1395 28.7162 22.6362 28.2883 22.2132C27.8603 21.7903 27.3531 21.4559 26.7957 21.2293C26.2383 21.0026 25.6417 20.8882 25.04 20.8926ZM25.04 28.706C24.4015 28.6994 23.7791 28.5043 23.2512 28.1452C22.7232 27.7861 22.3131 27.279 22.0724 26.6875C21.8317 26.0961 21.7711 25.4467 21.8982 24.821C22.0254 24.1953 22.3346 23.621 22.787 23.1704C23.2394 22.7199 23.8149 22.413 24.4412 22.2884C25.0674 22.1638 25.7165 22.2271 26.307 22.4702C26.8974 22.7133 27.4029 23.1255 27.7598 23.6549C28.1168 24.1843 28.3093 24.8075 28.3133 25.446C28.3151 25.8757 28.2315 26.3015 28.0675 26.6987C27.9034 27.0959 27.6622 27.4566 27.3577 27.7598C27.0532 28.0631 26.6916 28.3029 26.2937 28.4653C25.8958 28.6277 25.4697 28.7095 25.04 28.706Z" fill="#737871"/>
<path d="M37.306 25.3552C34.791 20.706 30.3806 17.8925 25.5 17.8925C20.6194 17.8925 16.2015 20.706 13.709 25.3552L13.5 25.7059L13.694 26.0642C16.209 30.7134 20.6194 33.5268 25.5 33.5268C30.3806 33.5268 34.7985 30.7507 37.306 26.0642L37.5 25.7059L37.306 25.3552ZM25.5 31.997C21.2985 31.997 17.4403 29.6537 15.2015 25.7059C17.4403 21.7582 21.2985 19.4149 25.5 19.4149C29.7015 19.4149 33.5149 21.7657 35.791 25.7059C33.5149 29.6537 29.694 31.997 25.5 31.997Z" fill="#737871"/>
</g>
<defs>
<clipPath id="clip0_444_921">
<rect width="48" height="48" fill="white" transform="translate(0.5 0.892517)"/>
</clipPath>
</defs>
</svg>
