<svg width="25" height="25" viewBox="0 0 25 25" fill="none" xmlns="http://www.w3.org/2000/svg">
<path d="M12.5 12.8925C14.0913 12.8925 15.6174 12.2604 16.7426 11.1352C17.8679 10.0099 18.5 8.48382 18.5 6.89252C18.5 5.30122 17.8679 3.77509 16.7426 2.64988C15.6174 1.52466 14.0913 0.892517 12.5 0.892517C10.9087 0.892517 9.38258 1.52466 8.25736 2.64988C7.13214 3.77509 6.5 5.30122 6.5 6.89252C6.5 8.48382 7.13214 10.0099 8.25736 11.1352C9.38258 12.2604 10.9087 12.8925 12.5 12.8925ZM16.5 6.89252C16.5 7.95338 16.0786 8.9708 15.3284 9.72094C14.5783 10.4711 13.5609 10.8925 12.5 10.8925C11.4391 10.8925 10.4217 10.4711 9.67157 9.72094C8.92143 8.9708 8.5 7.95338 8.5 6.89252C8.5 5.83165 8.92143 4.81424 9.67157 4.06409C10.4217 3.31394 11.4391 2.89252 12.5 2.89252C13.5609 2.89252 14.5783 3.31394 15.3284 4.06409C16.0786 4.81424 16.5 5.83165 16.5 6.89252ZM24.5 22.8925C24.5 24.8925 22.5 24.8925 22.5 24.8925H2.5C2.5 24.8925 0.5 24.8925 0.5 22.8925C0.5 20.8925 2.5 14.8925 12.5 14.8925C22.5 14.8925 24.5 20.8925 24.5 22.8925ZM22.5 22.8845C22.498 22.3925 22.192 20.9125 20.836 19.5565C19.532 18.2525 17.078 16.8925 12.5 16.8925C7.92 16.8925 5.468 18.2525 4.164 19.5565C2.808 20.9125 2.504 22.3925 2.5 22.8845H22.5Z" fill="#737871"/>
</svg>
