<svg width="21" height="15" viewBox="0 0 21 15" fill="none" xmlns="http://www.w3.org/2000/svg">
<path d="M20.3945 7.15921L18.29 2.86257C18.2363 2.75162 18.1465 2.65696 18.0317 2.59038C17.917 2.5238 17.7824 2.48825 17.6447 2.48815H15.5402V1.26053C15.5402 1.09774 15.4663 0.941619 15.3347 0.826508C15.2032 0.711397 15.0247 0.646729 14.8387 0.646729H1.51033C1.32428 0.646729 1.14586 0.711397 1.0143 0.826508C0.882745 0.941619 0.808838 1.09774 0.808838 1.26053V11.6952C0.808838 11.858 0.882745 12.0142 1.0143 12.1293C1.14586 12.2444 1.32428 12.309 1.51033 12.309H3.01153C3.17307 12.8292 3.52572 13.2883 4.01508 13.6157C4.50444 13.943 5.10331 14.1204 5.71929 14.1204C6.33527 14.1204 6.93414 13.943 7.4235 13.6157C7.91286 13.2883 8.26551 12.8292 8.42705 12.309H12.8324C12.994 12.8292 13.3466 13.2883 13.836 13.6157C14.3253 13.943 14.9242 14.1204 15.5402 14.1204C16.1562 14.1204 16.755 13.943 17.2444 13.6157C17.7338 13.2883 18.0864 12.8292 18.248 12.309H19.7491C19.9352 12.309 20.1136 12.2444 20.2452 12.1293C20.3767 12.0142 20.4506 11.858 20.4506 11.6952V7.3986C20.4505 7.31632 20.4314 7.23491 20.3945 7.15921ZM15.5402 3.71576H17.1817L18.6829 6.78479H15.5402V3.71576ZM5.71929 12.9229C5.4418 12.9229 5.17055 12.8509 4.93983 12.716C4.70911 12.5811 4.52929 12.3893 4.4231 12.165C4.31691 11.9407 4.28913 11.6939 4.34326 11.4557C4.3974 11.2176 4.53102 10.9989 4.72723 10.8272C4.92344 10.6555 5.17343 10.5386 5.44558 10.4912C5.71773 10.4439 5.99983 10.4682 6.25619 10.5611C6.51255 10.654 6.73167 10.8113 6.88583 11.0132C7.03999 11.2151 7.12227 11.4524 7.12227 11.6952C7.12227 12.0208 6.97446 12.3331 6.71135 12.5633C6.44824 12.7935 6.09138 12.9229 5.71929 12.9229ZM12.8324 11.0814H8.42705C8.26551 10.5613 7.91286 10.1022 7.4235 9.77481C6.93414 9.44745 6.33527 9.27009 5.71929 9.27009C5.10331 9.27009 4.50444 9.44745 4.01508 9.77481C3.52572 10.1022 3.17307 10.5613 3.01153 11.0814H2.21182V1.87434H14.1372V9.58375C13.8178 9.74597 13.5381 9.96177 13.3142 10.2188C13.0903 10.4758 12.9266 10.7689 12.8324 11.0814ZM15.5402 12.9229C15.2627 12.9229 14.9915 12.8509 14.7607 12.716C14.53 12.5811 14.3502 12.3893 14.244 12.165C14.1378 11.9407 14.11 11.6939 14.1642 11.4557C14.2183 11.2176 14.3519 10.9989 14.5481 10.8272C14.7443 10.6555 14.9943 10.5386 15.2665 10.4912C15.5386 10.4439 15.8207 10.4682 16.0771 10.5611C16.3335 10.654 16.5526 10.8113 16.7067 11.0132C16.8609 11.2151 16.9432 11.4524 16.9432 11.6952C16.9432 12.0208 16.7954 12.3331 16.5323 12.5633C16.2691 12.7935 15.9123 12.9229 15.5402 12.9229ZM19.0477 11.0814H18.248C18.0928 10.5557 17.7429 10.0898 17.253 9.75665C16.763 9.42347 16.1607 9.24178 15.5402 9.24002V8.0124H19.0477V11.0814Z" fill="#652F8B"/>
</svg>
