<svg width="25" height="24" viewBox="0 0 25 24" fill="none" xmlns="http://www.w3.org/2000/svg">
<path d="M11.4448 17.9996H13.4247V10.7998H11.4448V17.9996ZM12.375 8.52031C12.675 8.52031 12.9251 8.42023 13.1252 8.22008C13.3249 8.01992 13.4247 7.76984 13.4247 7.46985C13.4247 7.16986 13.3249 6.91498 13.1252 6.70523C12.9251 6.49499 12.675 6.38987 12.375 6.38987C12.075 6.38987 11.8249 6.49499 11.6248 6.70523C11.4251 6.91498 11.3253 7.16986 11.3253 7.46985C11.3253 7.76984 11.4251 8.01992 11.6248 8.22008C11.8249 8.42023 12.075 8.52031 12.375 8.52031ZM12.375 24C10.7152 24 9.16026 23.6849 7.71021 23.0547C6.26016 22.4249 4.99011 21.565 3.90005 20.475C2.80999 19.3849 1.95009 18.1148 1.32034 16.6648C0.690114 15.2147 0.375 13.6598 0.375 12C0.375 10.3402 0.690114 8.78022 1.32034 7.32009C1.95009 5.85996 2.80999 4.58991 3.90005 3.50993C4.99011 2.42995 6.26016 1.57509 7.71021 0.945341C9.16026 0.315114 10.7152 0 12.375 0C14.0348 0 15.5948 0.315114 17.0549 0.945341C18.515 1.57509 19.7851 2.42995 20.8651 3.50993C21.945 4.58991 22.7999 5.85996 23.4297 7.32009C24.0599 8.78022 24.375 10.3402 24.375 12C24.375 13.6598 24.0599 15.2147 23.4297 16.6648C22.7999 18.1148 21.945 19.3849 20.8651 20.475C19.7851 21.565 18.515 22.4249 17.0549 23.0547C15.5948 23.6849 14.0348 24 12.375 24ZM12.375 21.9898C15.1551 21.9898 17.515 21.0197 19.4546 19.0796C21.3947 17.14 22.3648 14.7801 22.3648 12C22.3648 9.2199 21.3998 6.86002 19.4697 4.92038C17.5397 2.98026 15.1748 2.0102 12.375 2.0102C9.5949 2.0102 7.23502 2.97522 5.29538 4.90526C3.35526 6.8353 2.3852 9.20022 2.3852 12C2.3852 14.7801 3.35526 17.14 5.29538 19.0796C7.23502 21.0197 9.5949 21.9898 12.375 21.9898Z" fill="#923FA5"/>
</svg>
